<svg width="291" height="361" viewBox="0 0 291 361" fill="none" xmlns="http://www.w3.org/2000/svg">
<rect width="291" height="361" fill="white"/>
<path d="M128.781 69.7733L127.395 70.0267L116.355 60.28L116.141 60.0933L96.6614 70.6666L82.328 78.44L78.9413 79.08L116.288 58.8133L128.781 69.7733" fill="#FBB020"/>
<path d="M82.0613 123.827V125.413H81.008V123.827H82.0613Z" fill="#FBB020"/>
<path d="M82.5147 117.613V123.827H80.6347V117.613H81.528H82.5147Z" fill="#E57900"/>
<path d="M180.835 287.027L181.155 287.773L178.915 290.107H175.248L178.208 287.027H180.835Z" fill="#FBB020"/>
<path d="M174.461 287.027L171.515 290.107H167.848L170.795 287.027H174.461Z" fill="#FBB020"/>
<path d="M159.315 287.027V287.4L156.701 290.107H153.048L155.995 287.027H159.315" fill="#FBB020"/>
<path d="M152.261 287.027L149.301 290.107H145.648L148.595 287.027H152.261Z" fill="#FBB020"/>
<path d="M181.155 287.773L182.155 290.107H178.915L181.155 287.773Z" fill="#E57900"/>
<path d="M178.208 287.027L175.248 290.107H171.515L174.461 287.027H178.208" fill="#E57900"/>
<path d="M170.795 287.027L167.848 290.107V287.027H170.795Z" fill="#E57900"/>
<path d="M159.315 287.4V290.107H156.701L159.315 287.4Z" fill="#E57900"/>
<path d="M155.995 287.027L153.048 290.107H149.301L152.261 287.027H155.995Z" fill="#E57900"/>
<path d="M148.595 287.027L145.648 290.107H144.435L145.741 287.027H145.755H148.595" fill="#E57900"/>
<path d="M171.448 300.147V302H155.715V300.147H159.315H167.848H171.448Z" fill="#161617"/>
<path d="M200.261 300.147V302H184.528V300.147H186.448H195.301H200.261" fill="#161617"/>
<path d="M142.528 300.147V302H126.795V300.147H131.288H140.141H142.528Z" fill="#161617"/>
<path d="M165.821 273.973C165.821 272.72 164.808 271.707 163.555 271.707C162.301 271.707 161.288 272.72 161.288 273.973C161.288 275.24 162.301 276.253 163.555 276.253C164.808 276.253 165.821 275.24 165.821 273.973ZM163.555 286.227C164.968 286.227 166.101 285.08 166.101 283.68C166.101 282.267 164.968 281.133 163.555 281.133C162.155 281.133 161.008 282.267 161.008 283.68C161.008 285.08 162.155 286.227 163.555 286.227ZM166.541 294.16C166.541 292.52 165.208 291.173 163.555 291.173C161.915 291.173 160.568 292.52 160.568 294.16C160.568 295.813 161.915 297.147 163.555 297.147C165.208 297.147 166.541 295.813 166.541 294.16ZM167.848 290.107V300.147H159.315V267.373H159.461H163.128H166.861H167.848V273.853V287.027V290.107Z" fill="#E57900"/>
<path d="M181.288 267.373L195.301 300.147H186.448L182.155 290.107L181.155 287.773L180.835 287.027L175.208 273.853H167.848V267.373H170.528H174.261H177.288H177.595H181.288" fill="#FF9500"/>
<path d="M159.315 267.373V273.853H151.381L145.755 287.027H145.741L144.435 290.107L140.141 300.147H131.288L145.301 267.373H148.995H152.061H155.728H159.315Z" fill="#FF9500"/>
<path d="M177.288 263.267V264.347L174.261 267.373H170.528L174.621 263.267H177.288" fill="#FBB020"/>
<path d="M170.955 263.267L166.861 267.373H163.128L167.221 263.267H169.448H170.955Z" fill="#FBB020"/>
<path d="M163.555 263.267L159.461 267.373H155.728L159.821 263.267H163.555Z" fill="#FBB020"/>
<path d="M156.155 263.267L152.061 267.373H148.995V266.693L152.421 263.267H156.141H156.155" fill="#FBB020"/>
<path d="M177.288 264.347V267.373H174.261L177.288 264.347Z" fill="#E57900"/>
<path d="M174.621 263.267L170.528 267.373H166.861L170.955 263.267H171.035H174.621Z" fill="#E57900"/>
<path d="M167.221 263.267L163.128 267.373H159.461L163.555 263.267H167.008H167.221Z" fill="#E57900"/>
<path d="M159.821 263.267L155.728 267.373H152.061L156.155 263.267H157.728H159.675H159.821Z" fill="#E57900"/>
<path d="M152.421 263.267L148.995 266.693V263.267H152.421Z" fill="#E57900"/>
<path d="M169.448 250.187V251.24H157.728V250.187H169.448Z" fill="#FF9500"/>
<path d="M169.448 234.333V235.387H157.728V234.333H169.448Z" fill="#FF9500"/>
<path d="M169.448 218.467V219.52H157.728V218.467H169.448Z" fill="#FF9500"/>
<path d="M169.448 202.6V203.667H157.728V202.6H169.448Z" fill="#FF9500"/>
<path d="M169.448 186.747V187.8H157.728V186.747H169.448Z" fill="#FF9500"/>
<path d="M169.448 170.88V171.933H157.728V170.88H169.448Z" fill="#FF9500"/>
<path d="M171.035 158.853V263.267H169.448V158.853H171.035Z" fill="#E57900"/>
<path d="M157.728 251.24V263.267H156.141V158.853H157.728V170.88V171.933V186.747V187.8V202.6V203.667V218.467V219.52V234.333V235.387V250.187V251.24Z" fill="#E57900"/>
<path d="M173.235 156.16V158.853H153.581V156.16H164.421H167.008H170.235H173.235Z" fill="#41383D"/>
<path d="M188.648 152.813V155.36L186.861 152.813H188.648Z" fill="#FBB020"/>
<path d="M182.688 152.813L185.035 156.16H181.808L179.461 152.813H182.688Z" fill="#FBB020"/>
<path d="M175.288 152.813L177.635 156.16H174.408L172.061 152.813H173.475H175.288" fill="#FBB020"/>
<path d="M167.888 152.813L170.235 156.16H167.008L164.661 152.813H167.888" fill="#FBB020"/>
<path d="M188.648 155.36V156.16H185.035L182.688 152.813H186.861L188.648 155.36" fill="#FF9500"/>
<path d="M179.461 152.813L181.808 156.16H177.635L175.288 152.813H179.461Z" fill="#FF9500"/>
<path d="M172.061 152.813L174.408 156.16H170.235L167.888 152.813H172.061Z" fill="#FF9500"/>
<path d="M164.661 152.813L167.008 156.16H164.421V152.813H164.661Z" fill="#FF9500"/>
<path d="M183.981 135.947C183.981 136.053 183.968 136.16 183.928 136.253H182.368C182.328 136.16 182.301 136.053 182.301 135.947C182.301 135.48 182.688 135.107 183.141 135.107C183.608 135.107 183.981 135.48 183.981 135.947" fill="#41383D"/>
<path d="M166.955 115.373L168.688 115.693C168.675 116.173 168.275 116.56 167.795 116.56C167.301 116.56 166.901 116.16 166.901 115.667C166.901 115.56 166.928 115.467 166.955 115.373" fill="#41383D"/>
<path d="M162.408 109.333C162.835 109.333 163.195 109.68 163.195 110.12C163.195 110.56 162.835 110.92 162.408 110.92C161.968 110.92 161.608 110.56 161.608 110.12C161.608 109.68 161.968 109.333 162.408 109.333Z" fill="#41383D"/>
<path d="M128.048 70.8C128.341 70.8 128.581 71.04 128.581 71.3333C128.581 71.6266 128.341 71.8534 128.048 71.8534C127.755 71.8534 127.515 71.6266 127.515 71.3333C127.515 71.04 127.755 70.8 128.048 70.8Z" fill="#41383D"/>
<path d="M120.555 75.1867C120.861 75.1867 121.115 75.44 121.115 75.7466C121.115 76.0533 120.861 76.3067 120.555 76.3067C120.235 76.3067 119.981 76.0533 119.981 75.7466C119.981 75.44 120.235 75.1867 120.555 75.1867Z" fill="#41383D"/>
<path d="M84.7547 80.08C85.1947 80.08 85.5547 80.4267 85.5547 80.8667C85.5547 81.3067 85.1947 81.6667 84.7547 81.6667C84.328 81.6667 83.968 81.3067 83.968 80.8667C83.968 80.4267 84.328 80.08 84.7547 80.08Z" fill="#41383D"/>
<path d="M132.421 76.1333L135.541 79.4933L130.168 78.3466L130.155 78.36L127.461 75.0666L132.421 76.1333Z" fill="#E57900"/>
<path d="M143.888 88.4933L137.368 87.1067L134.675 83.8267L140.755 85.12H140.768L143.888 88.4933Z" fill="#E57900"/>
<path d="M148.688 93.6666L151.808 97.04L144.235 95.4267L141.528 92.1466L148.688 93.6666" fill="#E57900"/>
<path d="M159.675 105.52L151.035 103.68H151.021L148.328 100.4L156.541 102.147H156.555L159.675 105.52Z" fill="#E57900"/>
<path d="M166.408 110.28L170.661 111.16L163.275 114.707V114.72L162.408 114.56L165.075 111.08C165.341 110.8 165.541 110.467 165.648 110.12L166.408 110.28" fill="#E57900"/>
<path d="M180.715 113.253L180.581 113.72H180.568L174.368 116.707L172.061 116.293L169.915 115.907L177.048 112.493L180.715 113.253" fill="#E57900"/>
<path d="M185.915 146.52V148.947H184.888V148.933L180.941 137.933V137.92H182.741L185.915 146.52Z" fill="#C6E8F8"/>
<path d="M182.488 148.933V148.947H178.315L175.701 140.96V137.92H178.648L182.488 148.933" fill="#C6E8F8"/>
<path d="M159.675 143.56V148.787L155.181 136.253H156.981L159.675 143.56Z" fill="#C6E8F8"/>
<path d="M158.075 151.053H153.835L151.288 143.267V136.253H152.915L158.075 151.053" fill="#C6E8F8"/>
<path d="M185.915 137.92V146.52L182.741 137.92H185.915Z" fill="#9AD8F3"/>
<path d="M184.888 148.933V148.947H182.488V148.933L178.648 137.92H180.941V137.933L184.888 148.933Z" fill="#9AD8F3"/>
<path d="M175.701 140.96L178.315 148.947H175.701V140.96Z" fill="#9AD8F3"/>
<path d="M188.848 115.187C188.848 115.573 187.128 123.493 187.128 123.493L176.101 120.667C174.061 120.093 172.488 118.427 172.061 116.333V116.293L174.368 116.707L179.395 117.613L180.568 113.72H180.581L180.715 113.253L177.048 112.493L172.648 111.573L173.475 107.333L183.861 109.533C186.675 109.893 188.848 112.28 188.848 115.187" fill="#FF9500"/>
<path d="M185.915 148.947V137.92H175.701V148.947H178.315H182.488H184.888H185.915ZM182.368 136.253H187.768V152.813H173.475V137.307V136.253H181.275H182.368" fill="#FF9500"/>
<path d="M181.875 134.547C182.141 134.293 182.488 134.133 182.861 134.08C182.955 134.067 183.048 134.053 183.141 134.053C184.195 134.053 185.035 134.893 185.035 135.947C185.035 136.053 185.035 136.147 185.008 136.253H183.928C183.968 136.16 183.981 136.053 183.981 135.947C183.981 135.48 183.608 135.107 183.141 135.107C182.688 135.107 182.301 135.48 182.301 135.947C182.301 136.053 182.328 136.16 182.368 136.253H181.275C181.261 136.147 181.248 136.053 181.248 135.947C181.248 135.387 181.488 134.88 181.875 134.547" fill="#E57900"/>
<path d="M182.861 134.067V134.08C182.488 134.133 182.141 134.293 181.875 134.547L168.648 117.467L168.621 117.413C168.955 117.267 169.235 117.027 169.435 116.707L182.861 134.067" fill="#E57900"/>
<path d="M180.568 113.72L179.395 117.613L174.368 116.707L180.568 113.72Z" fill="#FBB020"/>
<path d="M168.688 115.693L166.955 115.373L165.915 115.187L163.275 114.72V114.707L170.661 111.16L172.648 111.573L177.048 112.493L169.915 115.907L169.728 115.88L168.688 115.693" fill="#FBB020"/>
<path d="M173.475 137.307V152.813H164.421V137.307H173.475Z" fill="#983421"/>
<path d="M173.475 136.253V137.307H164.421V136.253H173.475Z" fill="#FBB020"/>
<path d="M168.688 115.693L169.728 115.88C169.701 116.187 169.595 116.467 169.435 116.707C169.235 117.027 168.955 117.267 168.621 117.413C168.368 117.547 168.088 117.613 167.795 117.613C167.621 117.613 167.461 117.587 167.301 117.547C166.461 117.333 165.848 116.573 165.848 115.667C165.848 115.507 165.875 115.347 165.915 115.187L166.955 115.373C166.928 115.467 166.901 115.56 166.901 115.667C166.901 116.16 167.301 116.56 167.795 116.56C168.275 116.56 168.675 116.173 168.688 115.693" fill="#E57900"/>
<path d="M163.195 110.12C163.195 109.68 162.835 109.333 162.408 109.333C161.968 109.333 161.608 109.68 161.608 110.12C161.608 110.56 161.968 110.92 162.408 110.92C162.835 110.92 163.195 110.56 163.195 110.12ZM164.968 107.347C165.755 108.08 165.981 109.173 165.648 110.12C165.541 110.467 165.341 110.8 165.075 111.08L162.408 114.56L160.515 117V117.013L152.515 127.387L151.821 122.6L149.155 118.48L157.181 111.147L161.235 107.453C161.275 107.413 161.315 107.373 161.368 107.347C162.368 106.387 163.941 106.387 164.968 107.347Z" fill="#E57900"/>
<path d="M158.075 151.053H159.675V136.253H151.288V134.667H153.581H156.835H163.741H164.421V136.253V137.307V152.813V156.16H153.581H151.288V151.053H153.835H158.075Z" fill="#FBB020"/>
<path d="M161.368 107.347C161.315 107.373 161.275 107.413 161.235 107.453L157.181 111.147L151.035 103.68L159.675 105.52L161.355 107.333L161.368 107.347Z" fill="#FBB020"/>
<path d="M159.675 148.787V151.053H158.075L152.915 136.253H155.181L159.675 148.787Z" fill="#9AD8F3"/>
<path d="M159.675 136.253V143.56L156.981 136.253H159.675Z" fill="#9AD8F3"/>
<path d="M151.821 97.04L156.541 102.147L148.328 100.4L144.235 95.4267L151.808 97.04H151.821" fill="#FBB020"/>
<path d="M151.288 143.267L153.835 151.053H151.288V143.267Z" fill="#9AD8F3"/>
<path d="M122.541 79.8133L123.968 79.4933L149.155 118.48L151.821 122.6L152.515 127.387V127.4L153.581 134.667H151.288V136.253V143.267V149.64L118.515 80.7333L119.875 80.4267L122.541 79.8133" fill="#FF9500"/>
<path d="M148.688 93.6667L141.528 92.1467L137.368 87.1067L143.888 88.4933L148.688 93.6667" fill="#FBB020"/>
<path d="M135.541 79.4933L140.755 85.12L134.675 83.8267L130.155 78.36L130.168 78.3467L135.541 79.4933Z" fill="#FBB020"/>
<path d="M129.261 72.7201L132.421 76.1333L127.461 75.0667L126.021 73.3333C128.021 72.9467 129.261 72.7201 129.261 72.7201Z" fill="#FBB020"/>
<path d="M85.5547 80.8666C85.5547 80.4266 85.1947 80.08 84.7547 80.08C84.328 80.08 83.968 80.4266 83.968 80.8666C83.968 81.3066 84.328 81.6666 84.7547 81.6666C85.1947 81.6666 85.5547 81.3066 85.5547 80.8666ZM128.581 71.3333C128.581 71.04 128.341 70.8 128.048 70.8C127.755 70.8 127.515 71.04 127.515 71.3333C127.515 71.6266 127.755 71.8534 128.048 71.8534C128.341 71.8534 128.581 71.6266 128.581 71.3333ZM128.781 69.7733C128.781 69.7733 130.315 70.96 129.261 72.72C129.261 72.72 128.021 72.9466 126.021 73.3333C125.181 73.48 124.208 73.6666 123.128 73.8666V73.88C121.435 74.1866 119.501 74.5466 117.435 74.9333C109.768 76.36 100.488 78.08 96.3947 78.8C92.8747 79.4133 89.488 80.7333 87.848 82.36C87.0214 83.1867 86.1547 84.04 84.888 84.04C83.6347 84.04 82.528 83.36 81.9414 82.36C81.9414 82.36 81.7547 82 81.5281 81.56C81.2614 81.0133 80.9147 80.3467 80.7947 80.12L76.8347 80.8666L76.4347 79.5466L78.9414 79.08L82.3281 78.44L97.608 75.5867L118.221 71.7466L127.395 70.0267L128.781 69.7733" fill="#FF9500"/>
<path d="M121.115 75.7467C121.115 75.44 120.861 75.1867 120.555 75.1867C120.235 75.1867 119.981 75.44 119.981 75.7467C119.981 76.0533 120.235 76.3067 120.555 76.3067C120.861 76.3067 121.115 76.0533 121.115 75.7467ZM122.408 77.64C121.875 78.0934 121.195 78.36 120.448 78.36C119.981 78.36 119.541 78.2533 119.141 78.0667C118.115 77.5733 117.408 76.5334 117.408 75.32C117.408 75.1867 117.421 75.0533 117.435 74.9333C119.501 74.5467 121.435 74.1867 123.128 73.88C123.355 74.3067 123.488 74.8 123.488 75.32C123.488 76.2534 123.075 77.08 122.408 77.64" fill="#E57900"/>
<path d="M122.821 78.8267C122.821 79.1867 122.728 79.52 122.541 79.8133L119.875 80.4267C119.341 80.0933 118.995 79.4933 118.995 78.8267C118.995 78.56 119.048 78.3067 119.141 78.08V78.0666C119.541 78.2533 119.981 78.36 120.448 78.36C121.195 78.36 121.875 78.0933 122.408 77.64C122.675 77.96 122.821 78.3733 122.821 78.8267" fill="#983421"/>
<path d="M173.807 152.809H173.14V136.243H173.807V152.809Z" fill="#FBC220"/>
<path d="M164.217 134.759L163.239 134.555L166.807 117.439L167.785 117.644L164.217 134.759Z" fill="#983421"/>
<path d="M157.32 134.759L156.341 134.555L160.023 116.892L161.001 117.096L157.32 134.759Z" fill="#983421"/>
<path d="M166.72 120.343L160.083 119.092L160.205 118.436L166.843 119.688L166.72 120.343" fill="#983421"/>
<path d="M164.86 129.672L158.221 128.421L158.344 127.767L164.983 129.017L164.86 129.672Z" fill="#983421"/>
<path d="M167.787 117.939C166.532 117.939 165.509 116.917 165.509 115.661C165.509 115.464 165.533 115.273 165.58 115.093L166.225 115.263C166.193 115.387 166.176 115.521 166.176 115.661C166.176 116.551 166.899 117.272 167.787 117.272C168.615 117.272 169.305 116.653 169.389 115.832L170.053 115.9C169.932 117.063 168.959 117.939 167.787 117.939" fill="#FF9500"/>
<path d="M187.111 123.536L178.564 121.399L176.433 120.841C175.715 120.672 175.012 120.383 174.4 119.957C173.169 119.119 172.289 117.792 172.001 116.336L172.1 116.316C172.719 117.676 173.719 118.679 174.841 119.305C175.423 119.607 175.981 119.817 176.667 119.931L178.813 120.431C181.652 121.183 184.459 122.06 187.137 123.44L187.111 123.536" fill="#E57900"/>
<path d="M172.609 111.561L173.432 107.313L173.439 107.272L173.483 107.28L183.872 109.465L183.867 109.464C185.268 109.631 186.587 110.357 187.499 111.427C188.415 112.496 188.929 113.901 188.869 115.315C188.352 118.059 187.74 120.772 187.156 123.496L187.092 123.481L187.681 119.337C187.908 117.975 188.159 116.565 188.337 115.245C188.328 114.077 187.876 112.745 187.032 111.829C186.203 110.875 185.017 110.288 183.784 110.113L183.752 110.108L183.736 110.105L178.557 108.933C177.692 108.749 176.839 108.507 175.98 108.296L173.405 107.643L173.795 107.384C173.435 108.784 173.047 110.177 172.675 111.575L172.609 111.561" fill="#FBC220"/>
<path d="M179.304 118.099L162.307 115.04L162.484 114.055L179.481 117.113L179.304 118.099Z" fill="#E57900"/>
<path d="M180.645 113.569L165.576 110.441L165.711 109.788L180.78 112.917L180.645 113.569" fill="#FBC220"/>
<path d="M156.663 111.564L125.077 73.3333L126.663 73.0573L157.692 110.716L156.663 111.564" fill="#E57900"/>
<path d="M161.101 107.548L129.007 72.936L129.496 72.484L161.592 107.095L161.101 107.548" fill="#FBC220"/>
<path d="M153.041 127.803L151.984 126.991L164.539 110.669C164.944 110.233 165.136 109.732 165.121 109.204C165.105 108.676 164.887 108.185 164.503 107.823C164.119 107.46 163.609 107.257 163.089 107.284C162.56 107.299 162.071 107.519 161.708 107.901L149.599 118.96L148.7 117.976L160.773 106.952C161.345 106.343 162.167 105.976 163.051 105.951C163.94 105.913 164.775 106.245 165.419 106.853C166.061 107.46 166.429 108.281 166.455 109.165C166.48 110.049 166.159 110.891 165.551 111.533L153.041 127.803" fill="#FF9500"/>
<path d="M152.913 134.753L151.169 122.825L123.257 79.6547L124.571 79.3787L152.445 122.345L152.468 122.488L154.233 134.56L152.913 134.753" fill="#FBC220"/>
<path d="M151.281 151.216L117.901 80.8613L119.171 80.584L151.281 148.085V151.216" fill="#E57900"/>
<path d="M81.8587 117.605H81.192V80.8613L81.8587 82.1187V117.605" fill="black"/>
<path d="M117.888 71.788L115.811 60.148L116.467 60.0306L118.544 71.6707L117.888 71.788Z" fill="#983421"/>
<path d="M97.2707 75.6413L96.3307 70.3853L96.9867 70.268L97.928 75.524L97.2707 75.6413Z" fill="#983421"/>
<path d="M123.144 73.8453C123.608 74.6866 123.651 75.7626 123.228 76.6373C122.823 77.52 121.971 78.1812 121.012 78.3612C120.051 78.5372 119.019 78.2346 118.321 77.5546C117.613 76.8906 117.26 75.8773 117.392 74.9213L117.457 74.9293C117.572 75.8893 118.027 76.692 118.677 77.1786C119.32 77.668 120.133 77.892 120.889 77.7066C121.656 77.608 122.34 77.0999 122.76 76.4133C122.983 76.0546 123.124 75.6999 123.164 75.2386C123.245 74.7959 123.203 74.3666 123.084 73.8746L123.144 73.8453" fill="#D64C00"/>
<path d="M127.36 70.0427L116.104 60.128L116.163 60.1347L82.3373 78.4654L82.3067 78.408C85.068 76.7747 87.7987 75.0854 90.5947 73.5147C93.376 71.9174 96.156 70.3201 98.972 68.7867C101.784 67.2481 104.569 65.6574 107.405 64.1627L115.896 59.6427L116.217 59.472L116.475 59.7094L121.98 64.804C123.801 66.5187 125.596 68.264 127.404 69.9934L127.36 70.0427" fill="#E57900"/>
<path d="M80.9653 123.819H80.2986V117.605H80.9653V123.819Z" fill="#FBB020"/>
<path d="M82.8387 123.819H82.172V117.605H82.8387V123.819Z" fill="#CC6600"/>
<path d="M151.281 134.624L164.412 134.605H164.464V156.209H164.412L151.281 156.191V156.124L157.847 155.831L164.412 155.66L163.913 156.157L163.813 145.408L163.912 134.657L164.412 135.157L157.847 134.985L151.281 134.691V134.624" fill="#E57900"/>
<path d="M175.857 148.765H185.745V138.084H175.857V148.765ZM186.079 149.099H175.524V137.751H186.079V149.099Z" fill="#FBC220"/>
<path d="M160.005 151.38H151.281V150.713H159.339V136.576H151.281V135.909H160.005V151.38Z" fill="#E57900"/>
<path d="M82.1533 125.629C82.1707 125.505 82.1293 125.629 82.132 125.676C82.1253 125.745 82.132 125.831 82.1453 125.92C82.1733 126.1 82.2333 126.296 82.3107 126.493C82.3827 126.704 82.4853 126.837 82.612 127.195C82.7067 127.517 82.6707 127.875 82.5253 128.152C82.2507 128.704 81.584 129.024 81.0333 128.784C80.4947 128.52 80.3747 127.968 80.3253 127.52C80.468 127.956 80.7533 128.405 81.1387 128.468C81.5067 128.535 81.848 128.217 81.9053 127.905C81.9747 127.553 81.7933 127.471 81.4347 126.977C81.2867 126.764 81.1467 126.536 81.032 126.269C80.976 126.136 80.9253 125.993 80.8907 125.829C80.8667 125.645 80.8134 125.531 80.8974 125.181L82.1533 125.629Z" fill="black"/>
<path d="M82.2853 125.739H80.7653V125.072H82.2853V125.739Z" fill="black"/>
<path d="M169.173 186.941L157.452 172.137L157.976 171.724L169.697 186.528L169.173 186.941Z" fill="#983421"/>
<path d="M157.976 186.941L157.452 186.528L169.173 171.724L169.697 172.137L157.976 186.941" fill="#983421"/>
<path d="M169.173 202.803L157.452 187.999L157.976 187.585L169.697 202.389L169.173 202.803Z" fill="#983421"/>
<path d="M157.976 202.803L157.452 202.389L169.173 187.585L169.697 187.999L157.976 202.803" fill="#983421"/>
<path d="M169.173 218.664L157.452 203.86L157.976 203.445L169.697 218.251L169.173 218.664" fill="#983421"/>
<path d="M157.976 218.664L157.452 218.251L169.173 203.445L169.697 203.86L157.976 218.664" fill="#983421"/>
<path d="M169.173 234.525L157.452 219.721L157.976 219.307L169.697 234.112L169.173 234.525" fill="#983421"/>
<path d="M157.976 234.525L157.452 234.112L169.173 219.307L169.697 219.721L157.976 234.525" fill="#983421"/>
<path d="M169.173 250.387L157.452 235.583L157.976 235.168L169.697 249.972L169.173 250.387Z" fill="#983421"/>
<path d="M157.976 250.387L157.452 249.972L169.173 235.168L169.697 235.583L157.976 250.387" fill="#983421"/>
<path d="M166.735 263.468L157.449 251.44L157.979 251.033L167.264 263.061L166.735 263.468Z" fill="#983421"/>
<path d="M159.932 263.475L159.413 263.055L169.176 251.027L169.695 251.447L159.932 263.475" fill="#983421"/>
<path d="M157.984 171.069L157.444 170.677L166.168 158.649L166.708 159.041L157.984 171.069Z" fill="#983421"/>
<path d="M169.164 171.069L160.485 159.041L161.027 158.651L169.707 170.679L169.164 171.069Z" fill="#983421"/>
<path d="M177.609 267.363H176.943V263.599H149.323V267.363H148.656V262.932H177.609V267.363Z" fill="#FBC220"/>
<path d="M76.5027 80.9573L76 79.2787L76.3653 79.212L128.447 69.4787L129.001 69.984L76.852 79.7986L77.1413 80.7653L76.5027 80.9573" fill="#FBB020"/>
<path d="M128.788 69.732C129.211 70.0907 129.528 70.5827 129.627 71.1347C129.729 71.688 129.569 72.2587 129.283 72.7294L129.275 72.7427L129.259 72.7467L104.755 77.3413L98.6227 78.4547C96.576 78.8173 94.5174 79.1267 92.5574 79.8174C90.6067 80.4907 88.6827 81.4053 87.276 82.96C86.54 83.6787 85.5054 84.236 84.436 84.048C83.388 83.9174 82.4267 83.276 81.892 82.368V82.3667L81.8907 82.3654L80.756 80.1307L80.7947 80.1493L76.8281 80.8933L76.816 80.8294L80.7547 79.9333L80.88 79.904L80.948 80.024L82.1734 82.224L82.1641 82.208C82.6894 83.0067 83.5587 83.556 84.4867 83.6493C85.4334 83.7813 86.2494 83.3147 86.96 82.6133C87.312 82.2813 87.6654 81.8654 88.1067 81.5147C88.5334 81.1667 88.9827 80.856 89.4494 80.5867C90.376 80.0334 91.3694 79.6267 92.3707 79.2693C94.376 78.5453 96.4934 78.2093 98.5107 77.836C100.553 77.464 102.589 77.0454 104.637 76.6987L116.911 74.5267C121.011 73.8547 125.105 73.144 129.223 72.5573L129.119 72.6294C129.404 72.196 129.573 71.6773 129.499 71.1573C129.429 70.6387 129.143 70.1454 128.747 69.784L128.788 69.732" fill="#E57900"/>
<path d="M173.56 159.179H153.24V156.157H153.907V158.512H172.893V156.157H173.56V159.179Z" fill="#666264"/>
<path d="M158.047 171.597H169.101V171.207H158.047V171.597ZM169.768 172.264H157.38V170.54H169.768V172.264Z" fill="#FF9500"/>
<path d="M158.047 187.459H169.101V187.068H158.047V187.459ZM169.768 188.125H157.38V186.401H169.768V188.125Z" fill="#FF9500"/>
<path d="M158.047 203.32H169.101V202.929H158.047V203.32ZM169.768 203.987H157.38V202.263H169.768V203.987Z" fill="#FF9500"/>
<path d="M158.047 219.181H169.101V218.791H158.047V219.181ZM169.768 219.848H157.38V218.124H169.768V219.848Z" fill="#FF9500"/>
<path d="M158.047 235.043H169.101V234.652H158.047V235.043ZM169.768 235.709H157.38V233.985H169.768V235.709Z" fill="#FF9500"/>
<path d="M158.047 250.904H169.101V250.513H158.047V250.904ZM169.768 251.571H157.38V249.847H169.768V251.571Z" fill="#FF9500"/>
</svg>
