<svg width="240" height="320" viewBox="0 0 240 320" fill="none" xmlns="http://www.w3.org/2000/svg">
<g clip-path="url(#clip0)">
<path fill-rule="evenodd" clip-rule="evenodd" d="M154.636 133.375H86.3864C84.8779 133.375 83.4313 133.974 82.3647 135.041C81.2981 136.107 80.6989 137.554 80.6989 139.062V195.938C80.6989 197.446 81.2981 198.893 82.3647 199.959C83.4313 201.026 84.8779 201.625 86.3864 201.625H154.636C156.145 201.625 157.591 201.026 158.658 199.959C159.725 198.893 160.324 197.446 160.324 195.938V139.062C160.324 137.554 159.725 136.107 158.658 135.041C157.591 133.974 156.145 133.375 154.636 133.375V133.375ZM86.3864 127.688C83.3695 127.688 80.4763 128.886 78.343 131.019C76.2098 133.152 75.0114 136.046 75.0114 139.062V195.938C75.0114 198.954 76.2098 201.848 78.343 203.981C80.4763 206.114 83.3695 207.312 86.3864 207.312H154.636C156.13 207.312 157.609 207.018 158.989 206.447C160.369 205.875 161.623 205.037 162.68 203.981C163.736 202.925 164.574 201.671 165.145 200.291C165.717 198.91 166.011 197.431 166.011 195.938V139.062C166.011 136.046 164.813 133.152 162.68 131.019C160.546 128.886 157.653 127.688 154.636 127.688H86.3864V127.688Z" fill="black"/>
<path d="M135.56 165.486C135.983 165.065 136.527 164.787 137.116 164.692C137.705 164.598 138.309 164.69 138.842 164.957L160.324 176.031V201.625H80.6989V190.25L95.748 176.861C96.2128 176.398 96.8236 176.11 97.4766 176.046C98.1297 175.982 98.7849 176.145 99.3311 176.509L114.46 186.593L135.56 165.492V165.486Z" fill="black"/>
<path fill-rule="evenodd" clip-rule="evenodd" d="M100.605 161.812C101.725 161.813 102.835 161.592 103.87 161.163C104.905 160.734 105.845 160.106 106.638 159.314C107.43 158.522 108.058 157.581 108.487 156.546C108.916 155.511 109.136 154.402 109.136 153.281C109.136 152.161 108.916 151.052 108.487 150.016C108.058 148.981 107.43 148.041 106.638 147.249C105.845 146.457 104.905 145.828 103.87 145.399C102.835 144.971 101.725 144.75 100.605 144.75C98.3425 144.75 96.1725 145.649 94.5726 147.249C92.9727 148.849 92.0739 151.019 92.0739 153.281C92.0739 155.544 92.9727 157.714 94.5726 159.314C96.1725 160.914 98.3425 161.812 100.605 161.812V161.812Z" fill="black"/>
</g>
<defs>
<clipPath id="clip0">
<rect width="91" height="91" fill="white" transform="translate(75 122)"/>
</clipPath>
</defs>
</svg>
