<svg width="1067" height="776" viewBox="0 0 1067 776" fill="none" xmlns="http://www.w3.org/2000/svg">
<g clip-path="url(#clip0)">
<rect width="1067" height="776" fill="white"/>
<path d="M0 921.667H1066.67V-145H0V921.667Z" fill="white"/>
<path d="M811.704 513.539C775.457 513.539 746.073 542.921 746.073 579.168V665.151H877.333V579.168C877.333 542.921 847.949 513.539 811.704 513.539Z" fill="#38913A"/>
<path d="M937.333 611.06C937.333 636.375 916.812 656.896 891.497 656.896C866.183 656.896 845.66 636.375 845.66 611.06C845.66 585.745 866.183 565.224 891.497 565.224C916.812 565.224 937.333 585.745 937.333 611.06Z" fill="#317D35"/>
<path d="M185.097 626.407C185.097 643.245 171.447 656.896 154.608 656.896C137.769 656.896 124.119 643.245 124.119 626.407C124.119 609.568 137.769 595.919 154.608 595.919C171.447 595.919 185.097 609.568 185.097 626.407Z" fill="#255B2A"/>
<path d="M285.207 593.901C285.207 628.692 257.003 656.896 222.212 656.896C187.42 656.896 159.217 628.692 159.217 593.901C159.217 559.109 187.42 530.907 222.212 530.907C257.003 530.907 285.207 559.109 285.207 593.901Z" fill="#317D35"/>
<path d="M102.667 675.053H964V640.023H102.667V675.053Z" fill="#2B2B2B"/>
<path d="M247.005 640.023H819.66V280.579H247.005V640.023Z" fill="#F2583A"/>
<path d="M247.005 640.023H819.66V280.579H247.005V640.023Z" fill="#CC9933"/>
<path d="M821.277 618.28H766.667V640.023H827.556V624.557C827.556 621.091 824.745 618.28 821.277 618.28Z" fill="#F8F8F9"/>
<path d="M605.777 640.023H766.667V380.057H605.777V640.023Z" fill="#37221F"/>
<path d="M615.333 630.467H757.111V389.613H615.333V630.467Z" fill="#83D3BF"/>
<path d="M757.107 449.212V463.987L682.733 389.613H697.507L757.107 449.212Z" fill="#B5E6D8"/>
<path d="M757.107 594.413V609.173L615.333 467.4V452.64L757.107 594.413Z" fill="#B5E6D8"/>
<path d="M757.107 471.84V501.387L645.333 389.613H674.88L757.107 471.84Z" fill="#B5E6D8"/>
<path d="M757.111 394.724H702.617L697.507 389.613H757.111V394.724ZM687.844 394.724H679.991L674.88 389.613H682.733L687.844 394.724Z" fill="#68AB9E"/>
<path d="M702.617 394.724H687.844L682.733 389.613H697.507L702.617 394.724Z" fill="#92BBB1"/>
<path d="M650.444 394.724H615.333V389.613H645.333L650.444 394.724Z" fill="#68AB9E"/>
<path d="M679.991 394.724H650.444L645.333 389.613H674.88L679.991 394.724Z" fill="#92BBB1"/>
<path d="M663.704 640.023H605.777V582.097L615.333 591.653V630.467H654.148L663.704 640.023Z" fill="#241817"/>
<path d="M654.148 630.467H615.333V591.653L654.148 630.467Z" fill="#50847E"/>
<path d="M638.611 493.168C638.611 496.544 635.875 499.28 632.5 499.28C629.125 499.28 626.389 496.544 626.389 493.168C626.389 489.793 629.125 487.057 632.5 487.057C635.875 487.057 638.611 489.793 638.611 493.168Z" fill="#E3E2E0"/>
<path d="M638.611 536.947C638.611 540.321 635.875 543.057 632.5 543.057C629.125 543.057 626.389 540.321 626.389 536.947C626.389 533.571 629.125 530.835 632.5 530.835C635.875 530.835 638.611 533.571 638.611 536.947Z" fill="#E3E2E0"/>
<path d="M632.5 488.391C630.567 488.391 629 489.957 629 491.891V538.224C629 540.157 630.567 541.724 632.5 541.724C634.433 541.724 636 540.157 636 538.224V491.891C636 489.957 634.433 488.391 632.5 488.391Z" fill="#F8F8F9"/>
<path d="M605.777 618.279H245.389C241.921 618.279 239.111 621.091 239.111 624.557V640.023H605.777V618.279Z" fill="#F8F8F9"/>
<path d="M820.379 257.835H246.288V268.375H820.379V257.835Z" fill="#BCBBB9"/>
<path d="M246.288 247.295H820.379V236.756H246.288V247.295Z" fill="#BCBBB9"/>
<path d="M253.333 257.835H813.333V247.295H253.333V257.835Z" fill="#CC9933"/>
<path d="M253.333 252.565H813.333V247.295H253.333V252.565Z" fill="#A0741B"/>
<path d="M748.371 371.192H716.247V358.7H748.371V371.192Z" fill="#2B2B2B"/>
<path d="M788.932 371.192H756.807V358.7H788.932V371.192Z" fill="#2B2B2B"/>
<path d="M768.784 350.396H736.659V337.903H768.784V350.396Z" fill="#2B2B2B"/>
<path d="M804.995 546.48H772.869V533.987H804.995V546.48Z" fill="#2B2B2B"/>
<path d="M825.407 525.683H793.283V513.191H825.407V525.683Z" fill="#2B2B2B"/>
<path d="M332.151 371.192H300.027V358.7H332.151V371.192Z" fill="#2B2B2B"/>
<path d="M372.712 371.192H340.587V358.7H372.712V371.192Z" fill="#2B2B2B"/>
<path d="M352.564 350.396H320.439V337.903H352.564V350.396Z" fill="#2B2B2B"/>
<path d="M393.124 350.396H361V337.903H393.124V350.396Z" fill="#2B2B2B"/>
<path d="M397.475 608.411H429.599V595.919H397.475V608.411Z" fill="#F03B1F"/>
<path d="M517.271 587.615H549.396V575.121H517.271V587.615Z" fill="#F03B1F"/>
<path d="M356.913 608.411H389.038V595.919H356.913V608.411Z" fill="#F03B1F"/>
<path d="M377.061 587.615H409.186V575.121H377.061V587.615Z" fill="#F03B1F"/>
<path d="M336.501 587.615H368.625V575.121H336.501V587.615Z" fill="#F03B1F"/>
<path d="M264.851 479.369H241.633V466.876H264.851V479.369Z" fill="#2B2B2B"/>
<path d="M279.603 458.572H256.387V446.079H279.603V458.572Z" fill="#2B2B2B"/>
<path d="M766.667 416.775C765.343 416.775 764.271 417.848 764.271 419.171V437.457C764.271 438.781 765.343 439.853 766.667 439.853C767.991 439.853 769.063 438.781 769.063 437.457V419.171C769.063 417.848 767.991 416.775 766.667 416.775Z" fill="#F8F8F9"/>
<path d="M766.667 580.227C765.343 580.227 764.271 581.3 764.271 582.623V600.909C764.271 602.232 765.343 603.305 766.667 603.305C767.991 603.305 769.063 602.232 769.063 600.909V582.623C769.063 581.3 767.991 580.227 766.667 580.227Z" fill="#F8F8F9"/>
<path d="M510.028 358.7V371.192H526.089V358.7H510.028Z" fill="#2B2B2B"/>
<path d="M528.361 337.903V350.396H544.423V337.903H528.361Z" fill="#2B2B2B"/>
<path d="M485.377 337.903V350.396H517.501V337.903H485.377Z" fill="#2B2B2B"/>
<path d="M269.145 586.743H285.207V574.249H269.145V586.743Z" fill="#2B2B2B"/>
<path d="M241.828 553.452V565.945H273.952V553.452H241.828Z" fill="#2B2B2B"/>
<path d="M778 451.807V464.299H801.188V451.807H778Z" fill="#2B2B2B"/>
<path d="M564.671 412.673V425.167H580.889V412.673H564.671Z" fill="#2B2B2B"/>
<path d="M572.78 430.676V443.168H588.999V430.676H572.78Z" fill="#2B2B2B"/>
<path d="M298.875 313.675C298.875 332.172 313.871 347.168 332.368 347.168C350.867 347.168 365.863 332.172 365.863 313.675V292.783H298.875V313.675Z" fill="#E3E2E0"/>
<path d="M432.851 313.675C432.851 332.172 447.847 347.168 466.345 347.168C484.844 347.168 499.839 332.172 499.839 313.675V292.783H432.851V313.675Z" fill="#E3E2E0"/>
<path d="M566.828 313.675C566.828 332.172 581.823 347.168 600.321 347.168C618.82 347.168 633.816 332.172 633.816 313.675V292.783H566.828V313.675Z" fill="#E3E2E0"/>
<path d="M700.804 292.783V313.675C700.804 332.172 715.8 347.168 734.299 347.168C752.797 347.168 767.792 332.172 767.792 313.675V292.783H700.804Z" fill="#E3E2E0"/>
<path d="M298.875 292.783H365.863L373.864 268.375H310.076L298.875 292.783Z" fill="#F1F1F1"/>
<path d="M432.851 292.783H499.839L501.44 268.375H437.652L432.851 292.783Z" fill="#F1F1F1"/>
<path d="M565.228 268.375L566.828 292.783H633.816L629.015 268.375H565.228Z" fill="#F1F1F1"/>
<path d="M756.591 268.375H692.803L700.804 292.783H767.792L756.591 268.375Z" fill="#F1F1F1"/>
<path d="M231.885 313.675C231.885 332.172 246.881 347.168 265.38 347.168C283.879 347.168 298.875 332.172 298.875 313.675V292.783H231.885V313.675Z" fill="#A0741B"/>
<path d="M365.863 313.675C365.863 332.172 380.859 347.168 399.357 347.168C417.855 347.168 432.851 332.172 432.851 313.675V292.783H365.863V313.675Z" fill="#A0741B"/>
<path d="M499.839 313.675C499.839 332.172 514.835 347.168 533.333 347.168C551.832 347.168 566.828 332.172 566.828 313.675V292.783H499.839V313.675Z" fill="#A0741B"/>
<path d="M633.816 313.675C633.816 332.172 648.812 347.168 667.309 347.168C685.808 347.168 700.804 332.172 700.804 313.675V292.783H633.816V313.675Z" fill="#A0741B"/>
<path d="M767.792 292.783V313.675C767.792 332.172 782.788 347.168 801.287 347.168C819.785 347.168 834.781 332.172 834.781 313.675V292.783H767.792Z" fill="#A0741B"/>
<path d="M231.885 292.783H298.875L310.076 268.375H246.288L231.885 292.783Z" fill="#E72A31"/>
<path d="M231.885 292.783H298.875L310.076 268.375H246.288L231.885 292.783Z" fill="#CC9933"/>
<path d="M365.863 292.783H432.851L437.652 268.375H373.864L365.863 292.783Z" fill="#E72A31"/>
<path d="M365.863 292.783H432.851L437.652 268.375H373.864L365.863 292.783Z" fill="#CC9933"/>
<path d="M501.44 268.375L499.839 292.783H566.828L565.228 268.375H501.44Z" fill="#E72A31"/>
<path d="M501.44 268.375L499.839 292.783H566.828L565.228 268.375H501.44Z" fill="#CC9933"/>
<path d="M629.015 268.375L633.816 292.783H700.804L692.803 268.375H629.015Z" fill="#E72A31"/>
<path d="M629.015 268.375L633.816 292.783H700.804L692.803 268.375H629.015Z" fill="#CC9933"/>
<path d="M820.379 268.375H756.591L767.792 292.783H834.781L820.379 268.375Z" fill="#E72A31"/>
<path d="M820.379 268.375H756.591L767.792 292.783H834.781L820.379 268.375Z" fill="#CC9933"/>
<path d="M253.243 380.057V392.551H270.275V380.057H253.243Z" fill="#2B2B2B"/>
<path d="M292.121 548.057H564.671V382.724H292.121V548.057Z" fill="#37221F"/>
<path d="M301.676 538.501H555.115V392.28H301.676V538.501Z" fill="#83D3BF"/>
<path d="M555.111 435.427V458.053L489.337 392.28H511.964L555.111 435.427Z" fill="#B5E6D8"/>
<path d="M555.111 464.345V475.653L471.737 392.28H483.057L555.111 464.345Z" fill="#B5E6D8"/>
<path d="M555.111 515.88V538.507H532.484L386.257 392.28H431.511L555.111 515.88Z" fill="#B5E6D8"/>
<path d="M555.115 397.391H517.075L511.964 392.28H555.115V397.391ZM494.448 397.391H488.168L483.057 392.28H489.337L494.448 397.391ZM476.848 397.391H436.621L431.511 392.28H471.737L476.848 397.391ZM391.368 397.391H301.676V392.28H386.257L391.368 397.391Z" fill="#68AB9E"/>
<path d="M517.075 397.391H494.448L489.337 392.28H511.964L517.075 397.391Z" fill="#92BBB1"/>
<path d="M488.168 397.391H476.848L471.737 392.28H483.057L488.168 397.391Z" fill="#92BBB1"/>
<path d="M436.621 397.391H391.368L386.257 392.28H431.511L436.621 397.391Z" fill="#92BBB1"/>
<path d="M277.933 579.168H578.859V548.058H277.933V579.168Z" fill="#FCFDFD"/>
<path d="M560.199 529.835H296.593C289.611 529.835 283.952 535.495 283.952 542.477V548.057H572.84V542.477C572.84 535.495 567.18 529.835 560.199 529.835Z" fill="#317D35"/>
<path d="M277.933 554.724H578.853V548.057H277.933V554.724Z" fill="#F1F1F1"/>
<path d="M572.808 541.835H283.984C283.973 542.049 283.952 542.26 283.952 542.477V548.057H572.84V542.477C572.84 542.26 572.819 542.049 572.808 541.835Z" fill="#255B2A"/>
<path d="M605.773 640.027H338.787L338.784 640.023H605.777L605.773 640.027Z" fill="#282726"/>
<path d="M605.777 618.279H317.04L285.207 586.447V579.173H336.501V587.615H368.625V579.173H377.061V587.615H409.187V579.173H517.271V587.615H549.396V579.173H578.853V579.168H578.859V548.057L605.773 574.973V618.279H605.777ZM397.475 595.919V608.411H429.599V595.919H397.475ZM356.913 595.919V608.411H389.039V595.919H356.913Z" fill="#A43C26"/>
<path d="M605.777 618.279H317.04L285.207 586.447V579.173H336.501V587.615H368.625V579.173H377.061V587.615H409.187V579.173H517.271V587.615H549.396V579.173H578.853V579.168H578.859V548.057L605.773 574.973V618.279H605.777ZM397.475 595.919V608.411H429.599V595.919H397.475ZM356.913 595.919V608.411H389.039V595.919H356.913Z" fill="#A0741B"/>
<path d="M605.777 640.023H338.784L317.04 618.279H605.777L605.773 640.023" fill="#9C9C9B"/>
<path d="M397.475 608.411H429.599V595.919H397.475V608.411Z" fill="#2B2B2B"/>
<path d="M517.271 587.615H549.396V579.174H517.271V587.615Z" fill="#2B2B2B"/>
<path d="M356.913 608.411H389.038V595.919H356.913V608.411Z" fill="#2B2B2B"/>
<path d="M377.061 587.615H409.186V579.174H377.061V587.615Z" fill="#2B2B2B"/>
<path d="M336.501 587.615H368.625V579.174H336.501V587.615Z" fill="#2B2B2B"/>
<path d="M285.207 586.447L277.933 579.173H285.207V586.447Z" fill="#A32820"/>
<path d="M578.859 548.057L578.853 548.052L578.857 548.057" fill="#A43C26"/>
<path d="M578.859 579.168L578.853 554.724V548.057H578.859V579.168Z" fill="#9F9F9E"/>
<path d="M829.124 101.613H237.543C228.283 101.613 220.776 109.12 220.776 118.379V209.763C220.776 219.023 228.283 226.528 237.543 226.528H829.124C838.384 226.528 845.891 219.023 845.891 209.763V118.379C845.891 109.12 838.384 101.613 829.124 101.613Z" fill="#2B2B2B"/>
<path d="M825.397 111.52H241.269C235.32 111.52 230.496 116.344 230.496 122.293V205.848C230.496 211.797 235.32 216.621 241.269 216.621H825.397C831.347 216.621 836.171 211.797 836.171 205.848V122.293C836.171 116.344 831.347 111.52 825.397 111.52Z" fill="#2E8B7A"/>
<path d="M825.397 111.52H241.269C235.32 111.52 230.496 116.344 230.496 122.293V205.848C230.496 211.797 235.32 216.621 241.269 216.621H825.397C831.347 216.621 836.171 211.797 836.171 205.848V122.293C836.171 116.344 831.347 111.52 825.397 111.52Z" fill="#DEEFB7"/>
<path d="M836.164 123.497H230.503V122.295C230.503 116.349 235.315 111.525 241.272 111.525H825.395C831.353 111.525 836.164 116.349 836.164 122.295V123.497Z" fill="#DEEFB7"/>
<path d="M430.821 177.759C430.821 175.446 430.005 173.678 428.372 172.453C426.74 171.202 423.801 169.896 419.556 168.535C415.312 167.147 411.951 165.787 409.475 164.454C402.727 160.807 399.353 155.896 399.353 149.719C399.353 146.509 400.251 143.652 402.047 141.148C403.87 138.618 406.468 136.645 409.842 135.23C413.244 133.815 417.053 133.108 421.271 133.108C425.515 133.108 429.298 133.883 432.617 135.434C435.937 136.958 438.508 139.121 440.331 141.924C442.182 144.726 443.107 147.91 443.107 151.474H430.862C430.862 148.753 430.005 146.645 428.291 145.148C426.577 143.624 424.168 142.862 421.067 142.862C418.073 142.862 415.747 143.502 414.087 144.781C412.427 146.032 411.597 147.692 411.597 149.76C411.597 151.692 412.563 153.311 414.495 154.617C416.454 155.923 419.325 157.148 423.107 158.291C430.073 160.386 435.148 162.984 438.331 166.086C441.515 169.188 443.107 173.052 443.107 177.678C443.107 182.82 441.161 186.861 437.27 189.8C433.379 192.711 428.141 194.167 421.556 194.167C416.985 194.167 412.822 193.337 409.067 191.677C405.312 189.99 402.441 187.691 400.455 184.78C398.496 181.868 397.516 178.494 397.516 174.657H409.802C409.802 181.215 413.72 184.494 421.556 184.494C424.468 184.494 426.74 183.909 428.372 182.739C430.005 181.542 430.821 179.882 430.821 177.759ZM496.166 143.842H477.963V193.351H465.718V143.842H447.76V133.924H496.166V143.842ZM550.859 164.984C550.859 170.834 549.825 175.963 547.757 180.372C545.689 184.78 542.723 188.181 538.859 190.575C535.022 192.97 530.614 194.167 525.635 194.167C520.71 194.167 516.315 192.983 512.452 190.616C508.588 188.249 505.595 184.875 503.472 180.494C501.35 176.086 500.275 171.025 500.248 165.311V162.372C500.248 156.522 501.295 151.379 503.391 146.944C505.513 142.481 508.492 139.067 512.329 136.699C516.193 134.305 520.601 133.108 525.553 133.108C530.505 133.108 534.9 134.305 538.736 136.699C542.6 139.067 545.58 142.481 547.675 146.944C549.797 151.379 550.859 156.508 550.859 162.331V164.984ZM538.451 162.29C538.451 156.059 537.335 151.325 535.104 148.087C532.873 144.849 529.689 143.23 525.553 143.23C521.444 143.23 518.275 144.835 516.043 148.046C513.812 151.23 512.683 155.91 512.656 162.086V164.984C512.656 171.052 513.771 175.759 516.002 179.106C518.234 182.453 521.444 184.126 525.635 184.126C529.744 184.126 532.9 182.521 535.104 179.31C537.308 176.072 538.424 171.365 538.451 165.188V162.29ZM581.756 171.596H572.001V193.351H559.756V133.924H581.837C588.857 133.924 594.272 135.488 598.082 138.618C601.891 141.747 603.796 146.168 603.796 151.883C603.796 155.937 602.911 159.325 601.143 162.046C599.401 164.739 596.748 166.889 593.184 168.494L606.041 192.779V193.351H592.898L581.756 171.596ZM572.001 161.678H581.878C584.953 161.678 587.334 160.903 589.021 159.352C590.708 157.774 591.551 155.61 591.551 152.862C591.551 150.059 590.749 147.855 589.143 146.25C587.565 144.645 585.13 143.842 581.837 143.842H572.001V161.678ZM648.896 167.596H625.387V183.514H652.978V193.351H613.142V133.924H652.896V143.842H625.387V158.005H648.896V167.596Z" fill="#FCFDFD"/>
<path d="M297.871 236.756H287.871V226.528H297.871V236.756Z" fill="#201E1D"/>
<path d="M778.796 236.756H768.796V226.528H778.796V236.756Z" fill="#201E1D"/>
</g>
<defs>
<clipPath id="clip0">
<rect width="1067" height="776" fill="white"/>
</clipPath>
</defs>
</svg>
